<svg xmlns="http://www.w3.org/2000/svg" version="1.1" xmlns:xlink="http://www.w3.org/1999/xlink" xmlns:svgjs="http://svgjs.dev/svgjs" width="2000" height="2250" viewBox="0 0 2000 2250"><g transform="matrix(1,0,0,1,3.410605131648481e-13,0)"><svg viewBox="0 0 320 360" data-background-color="#ffffff" preserveAspectRatio="xMidYMid meet" height="2250" width="2000" xmlns="http://www.w3.org/2000/svg" xmlns:xlink="http://www.w3.org/1999/xlink"><g id="tight-bounds" transform="matrix(1,0,0,1,0,0)"><svg viewBox="0 0 320 360" height="360" width="320"><g><svg></svg></g><g><svg viewBox="0 0 320 360" height="360" width="320"><g><path xmlns="http://www.w3.org/2000/svg" d="M20.961 227.22l3.726 4.658-1.863-6.056c-0.466-2.795-3.726 0.466-1.863 1.398M25.153 224.425c1.397 2.329 2.795 4.658 2.795 6.987 0 3.261 2.795 4.658 5.123 5.589-3.261-3.726-5.124-13.974-7.918-12.576M204.017 26.929c7.918 0 15.371-0.932 23.756 0.931 20.495 5.124 37.729 15.371 49.374 29.811l32.606 52.169c1.397 13.042 4.192 27.482 3.726 43.319 3.261 0 2.795-4.658 6.521-5.59-3.726 9.316-5.59 20.961-6.521 34.469-2.329-7.453 0-18.632 0.466-24.687-3.261 5.124-5.124 1.397-5.124-0.932 0.466-3.726-1.397-3.261-2.795-4.658-5.124-4.658-8.384-9.782-12.11-17.7 2.329-6.055 2.795-14.905-4.658-19.563-2.329-1.397-5.124-3.726-6.521-7.453-1.863-5.124-5.124-11.179-4.193-19.097 0.466-2.329-6.987 5.124-11.179 1.863-18.166-12.576-36.332-27.016-58.224-39.127-11.645 0-20.029-4.192-24.221-9.316-3.726-4.658-0.932-10.713 4.658-11.179 3.261 0 6.987-0.932 9.782 0.932 0.466-1.863 2.329-4.192 4.657-4.192M157.904 16.215l0.932 0.466c4.658 0.932 6.987 7.453 12.11 5.124 0 3.261 0.466 6.521-0.466 8.85-1.397 3.726-5.59 3.726-8.85 3.726-31.208-1.863-49.374 11.179-68.471 22.358-5.124 3.261-10.713 5.59-14.906 9.782-20.029 18.632-41.921 35.866-47.045 70.335l-4.192 38.195c-0.466 4.192-5.124 8.384-4.192 13.508l3.26 22.824c-3.261-3.261-5.124 0.932-4.192 2.795 0.466 1.397 2.329 6.055 5.124 1.863 3.726 6.987 7.453 20.495 12.576 26.55 15.837 18.632 36.332 35.4 53.101 52.169 4.192-0.932 7.453-0.932 8.384-3.727 1.397 2.795-1.397 5.59-3.726 6.056 7.453 4.658 15.837 8.85 27.016 9.781 14.44 0.932 27.948 3.261 40.524 6.522 6.521-1.863 13.042-2.795 20.029-3.261 2.329 0 3.726-3.726 6.521-4.658l0.466-4.658c2.795 4.192 2.329-1.397 0.466-4.192 3.261 2.795 4.192 5.124 5.589 6.987 0-1.397 3.726-6.521 3.727-0.466l0.931-6.055c1.397-0.932 1.863 5.124 3.261 0.931 1.397-4.192 4.192-0.932 6.987-2.329-0.932 1.863-0.466 5.59 2.794 3.261l3.727-3.261c2.329 5.59 6.055 3.261 7.918 2.329 20.495-13.042 40.99-28.413 60.553-43.784l-0.466 6.055 2.329-7.453c2.329 2.329 4.192 0.466 5.124-0.931 2.795-4.658 6.521-9.316 12.577-13.508-7.453 20.029-16.303 35.866-27.482 48.908l-4.658 5.59c0 3.261-0.932 7.453-4.658 7.918-1.863 0.466-5.59-0.932-8.384 1.863-1.397 1.863 3.261 5.59-0.466 2.795-3.261-2.329-6.521 0-10.248 0.932-2.795 0.932 1.863 3.726 2.795 5.589 0.932 1.863 1.863 3.726 1.398 6.056l-5.124-5.59c-6.055 3.261-9.782 9.316-14.906 13.974-2.329 1.863-1.397 5.124-1.397 7.918-3.261 0-6.987-0.932-8.85 0.932-1.397 1.863-0.932 4.658-0.932 7.453-4.658-0.466-5.124-7.453-9.315-6.056-4.192 0.932-8.85 1.397-12.577 3.727 2.795 5.59-4.658 2.329-3.726 3.26-6.987-4.192-13.042-7.453-20.495-4.658-15.837-5.124-35.4-2.795-49.84-0.931 0-2.329 0.466-4.658-0.466-5.124-0.932 2.329-3.726 1.397-3.26 1.397-8.85-6.055-17.7-9.782-27.016-14.905-8.384 0.932-16.303-3.261-18.632-5.59-6.521-6.055-13.974-2.795-20.029-4.192-13.042-3.261-17.7-16.769-19.098-26.084-0.932-4.658-4.658-6.521-6.055-6.056-6.055-19.563-15.371-37.263-22.824-55.429-1.863-4.658-1.397-9.316-1.397-14.44 2.329 0.932 4.658 0.466 4.192-2.794-2.329-15.371-7.918-27.016-13.974-38.195 3.261-15.837 3.726-34.469 11.179-48.443 6.521-12.576 18.632-19.098 27.016-29.811 2.795-3.726 2.795-8.85 5.59-12.11 9.316-9.316 18.632-19.098 28.879-27.482 4.658-3.726 10.247 0 17.234-1.397 2.329-8.384 11.645-15.837 20.495-13.508 3.726 0.932 11.179-8.85 13.508-9.782 3.726-1.397 1.863 3.726 1.863 6.987 8.85-6.987 20.961-10.713 32.14-14.906" fill="#ee3e38" fill-rule="nonzero" stroke="none" stroke-width="1" stroke-linecap="butt" stroke-linejoin="miter" stroke-miterlimit="10" stroke-dasharray="" stroke-dashoffset="0" font-family="none" font-weight="none" font-size="none" text-anchor="none" style="mix-blend-mode: normal" data-fill-palette-color="tertiary"></path></g><g transform="matrix(1,0,0,1,81.0152990264256,90)"><svg viewBox="0 0 157.9694019471488 180" height="180" width="157.9694019471488"><g><svg viewBox="0 0 157.9694019471488 180" height="180" width="157.9694019471488"><g><svg viewBox="0 0 157.9694019471488 180" height="180" width="157.9694019471488"><g id="textblocktransform"><svg viewBox="0 0 157.9694019471488 180" height="180" width="157.9694019471488" id="textblock"><g><svg viewBox="0 0 157.9694019471488 180" height="180" width="157.9694019471488"><g transform="matrix(1,0,0,1,0,0)"><svg width="157.9694019471488" viewBox="2.1500000953674316 -34.75 31.55000114440918 35.95000076293945" height="180" data-palette-color="#ee3e38"><path d="M16.8 1.2Q13.25 1.2 9.65 0.4L9.65 0.4Q6.1-0.45 3.8-1.9L3.8-1.9Q3.2-3.7 2.9-5.5 2.6-7.3 2.15-10.65L2.15-10.65 2.15-10.8Q2.25-11.4 2.8-11.7L2.8-11.7Q4.7-10.55 6.45-9.98 8.2-9.4 10.3-9.4L10.3-9.4 11.5-9.4 12.3-9.35Q13.45-9.35 14.65-9.7L14.65-9.7Q15.3-9.95 15.55-10.65L15.55-10.65 12.9-11.95Q9.85-13.4 7.4-15.05L7.4-15.05Q4.85-16.9 3.75-19.75L3.75-19.75Q3.2-21.3 3.2-23.15L3.2-23.15Q3.2-27.65 5.95-30.4L5.95-30.4Q8.35-32.85 12.45-33.9L12.45-33.9Q16-34.75 20.25-34.75L20.25-34.75Q22.75-34.75 27.15-34.2L27.15-34.2Q27.6-34.1 28.4-34L28.4-34 29.9-33.7Q31.6-33.4 32.4-33.4L32.4-33.4Q32.45-33.4 32.58-33.25 32.7-33.1 32.8-33L32.8-33Q33-32.65 33.2-32.65L33.2-32.65 33.25-32.65 33.3-32.65 33.4-31.6Q33.4-30.85 33.55-30L33.55-30Q33.7-28.75 33.7-27.3L33.7-27.3Q33.7-26.05 33.55-25.5L33.55-25.5Q33.3-24.5 32.65-24.05L32.65-24.05 28-24.65 27.5-24.65 26.8-24.65Q25.1-24.65 22.9-24.3L22.9-24.3 21.25-23.95Q20.65-23.85 20.65-23.75L20.65-23.75Q20.65-22.55 22.2-21.5L22.2-21.5Q22.95-21.1 23.7-20.83 24.45-20.55 24.65-20.45L24.65-20.45Q28.35-19.4 31.05-16.8L31.05-16.8Q32.3-15.6 33-14.25 33.7-12.9 33.7-11.65L33.7-11.65Q33.7-10.9 33.5-10.05L33.5-10.05Q33.15-6.3 30.65-3.55L30.65-3.55Q28.2-1.1 24.5 0.05L24.5 0.05Q21.3 1.2 16.8 1.2L16.8 1.2Z" opacity="1" transform="matrix(1,0,0,1,0,0)" fill="#ee3e38" class="wordmark-text-0" data-fill-palette-color="primary" id="text-0"></path></svg></g></svg></g></svg></g></svg></g></svg></g></svg></g></svg></g><defs></defs></svg><rect width="320" height="360" fill="none" stroke="none" visibility="hidden"></rect></g></svg></g></svg>